<?xml version="1.0" encoding="UTF-8"?>
<!DOCTYPE svg PUBLIC "-//W3C//DTD SVG 1.1//EN" "http://www.w3.org/Graphics/SVG/1.1/DTD/svg11.dtd">
<svg width="242mm" height="128mm" viewBox="0 0 24200 12800" version="1.1" xmlns="http://www.w3.org/2000/svg" xmlns:xlink="http://www.w3.org/1999/xlink" stroke-width="28.222" stroke-linejoin="round" xml:space="preserve">
 <path fill="rgb(255,255,255)" stroke="none" d="M 12067,12736 L -13,12736 -13,-13 24147,-13 24147,12736 12067,12736 Z"/>
 <path fill="none" stroke="rgb(179,179,179)" stroke-linejoin="round" d="M 12168,11051 L 1104,11051 1104,441 23232,441 23232,11051 12168,11051 Z"/>
 <path fill="none" stroke="rgb(179,179,179)" stroke-linejoin="round" d="M 1104,440 L 1104,11050"/>
 <path fill="none" stroke="rgb(179,179,179)" stroke-linejoin="round" d="M 2948,440 L 2948,11050"/>
 <path fill="none" stroke="rgb(179,179,179)" stroke-linejoin="round" d="M 4792,440 L 4792,11050"/>
 <path fill="none" stroke="rgb(179,179,179)" stroke-linejoin="round" d="M 6636,440 L 6636,11050"/>
 <path fill="none" stroke="rgb(179,179,179)" stroke-linejoin="round" d="M 8480,440 L 8480,11050"/>
 <path fill="none" stroke="rgb(179,179,179)" stroke-linejoin="round" d="M 10324,440 L 10324,11050"/>
 <path fill="none" stroke="rgb(179,179,179)" stroke-linejoin="round" d="M 12167,440 L 12167,11050"/>
 <path fill="none" stroke="rgb(179,179,179)" stroke-linejoin="round" d="M 14011,440 L 14011,11050"/>
 <path fill="none" stroke="rgb(179,179,179)" stroke-linejoin="round" d="M 15855,440 L 15855,11050"/>
 <path fill="none" stroke="rgb(179,179,179)" stroke-linejoin="round" d="M 17699,440 L 17699,11050"/>
 <path fill="none" stroke="rgb(179,179,179)" stroke-linejoin="round" d="M 19543,440 L 19543,11050"/>
 <path fill="none" stroke="rgb(179,179,179)" stroke-linejoin="round" d="M 21387,440 L 21387,11050"/>
 <path fill="none" stroke="rgb(179,179,179)" stroke-linejoin="round" d="M 23232,440 L 23232,11050"/>
 <path fill="none" stroke="rgb(179,179,179)" stroke-linejoin="round" d="M 23232,11050 L 1104,11050"/>
 <path fill="none" stroke="rgb(179,179,179)" stroke-linejoin="round" d="M 23232,10342 L 1104,10342"/>
 <path fill="none" stroke="rgb(179,179,179)" stroke-linejoin="round" d="M 23232,9635 L 1104,9635"/>
 <path fill="none" stroke="rgb(179,179,179)" stroke-linejoin="round" d="M 23232,8927 L 1104,8927"/>
 <path fill="none" stroke="rgb(179,179,179)" stroke-linejoin="round" d="M 23232,8220 L 1104,8220"/>
 <path fill="none" stroke="rgb(179,179,179)" stroke-linejoin="round" d="M 23232,7513 L 1104,7513"/>
 <path fill="none" stroke="rgb(179,179,179)" stroke-linejoin="round" d="M 23232,6805 L 1104,6805"/>
 <path fill="none" stroke="rgb(179,179,179)" stroke-linejoin="round" d="M 23232,6099 L 1104,6099"/>
 <path fill="none" stroke="rgb(179,179,179)" stroke-linejoin="round" d="M 23232,5391 L 1104,5391"/>
 <path fill="none" stroke="rgb(179,179,179)" stroke-linejoin="round" d="M 23232,4684 L 1104,4684"/>
 <path fill="none" stroke="rgb(179,179,179)" stroke-linejoin="round" d="M 23232,3977 L 1104,3977"/>
 <path fill="none" stroke="rgb(179,179,179)" stroke-linejoin="round" d="M 23232,3269 L 1104,3269"/>
 <path fill="none" stroke="rgb(179,179,179)" stroke-linejoin="round" d="M 23232,2562 L 1104,2562"/>
 <path fill="none" stroke="rgb(179,179,179)" stroke-linejoin="round" d="M 23232,1854 L 1104,1854"/>
 <path fill="none" stroke="rgb(179,179,179)" stroke-linejoin="round" d="M 23232,1147 L 1104,1147"/>
 <path fill="none" stroke="rgb(179,179,179)" stroke-linejoin="round" d="M 23232,440 L 1104,440"/>
 <path fill="none" stroke="rgb(179,179,179)" stroke-linejoin="round" d="M 1104,11200 L 1104,11050"/>
 <path fill="none" stroke="rgb(179,179,179)" stroke-linejoin="round" d="M 1104,11200 L 1104,11050"/>
 <path fill="none" stroke="rgb(179,179,179)" stroke-linejoin="round" d="M 2948,11200 L 2948,11050"/>
 <path fill="none" stroke="rgb(179,179,179)" stroke-linejoin="round" d="M 2948,11200 L 2948,11050"/>
 <path fill="none" stroke="rgb(179,179,179)" stroke-linejoin="round" d="M 4792,11200 L 4792,11050"/>
 <path fill="none" stroke="rgb(179,179,179)" stroke-linejoin="round" d="M 4792,11200 L 4792,11050"/>
 <path fill="none" stroke="rgb(179,179,179)" stroke-linejoin="round" d="M 6636,11200 L 6636,11050"/>
 <path fill="none" stroke="rgb(179,179,179)" stroke-linejoin="round" d="M 6636,11200 L 6636,11050"/>
 <path fill="none" stroke="rgb(179,179,179)" stroke-linejoin="round" d="M 8480,11200 L 8480,11050"/>
 <path fill="none" stroke="rgb(179,179,179)" stroke-linejoin="round" d="M 8480,11200 L 8480,11050"/>
 <path fill="none" stroke="rgb(179,179,179)" stroke-linejoin="round" d="M 10324,11200 L 10324,11050"/>
 <path fill="none" stroke="rgb(179,179,179)" stroke-linejoin="round" d="M 10324,11200 L 10324,11050"/>
 <path fill="none" stroke="rgb(179,179,179)" stroke-linejoin="round" d="M 12167,11200 L 12167,11050"/>
 <path fill="none" stroke="rgb(179,179,179)" stroke-linejoin="round" d="M 12167,11200 L 12167,11050"/>
 <path fill="none" stroke="rgb(179,179,179)" stroke-linejoin="round" d="M 14011,11200 L 14011,11050"/>
 <path fill="none" stroke="rgb(179,179,179)" stroke-linejoin="round" d="M 14011,11200 L 14011,11050"/>
 <path fill="none" stroke="rgb(179,179,179)" stroke-linejoin="round" d="M 15855,11200 L 15855,11050"/>
 <path fill="none" stroke="rgb(179,179,179)" stroke-linejoin="round" d="M 15855,11200 L 15855,11050"/>
 <path fill="none" stroke="rgb(179,179,179)" stroke-linejoin="round" d="M 17699,11200 L 17699,11050"/>
 <path fill="none" stroke="rgb(179,179,179)" stroke-linejoin="round" d="M 17699,11200 L 17699,11050"/>
 <path fill="none" stroke="rgb(179,179,179)" stroke-linejoin="round" d="M 19543,11200 L 19543,11050"/>
 <path fill="none" stroke="rgb(179,179,179)" stroke-linejoin="round" d="M 19543,11200 L 19543,11050"/>
 <path fill="none" stroke="rgb(179,179,179)" stroke-linejoin="round" d="M 21387,11200 L 21387,11050"/>
 <path fill="none" stroke="rgb(179,179,179)" stroke-linejoin="round" d="M 21387,11200 L 21387,11050"/>
 <path fill="none" stroke="rgb(179,179,179)" stroke-linejoin="round" d="M 23232,11200 L 23232,11050"/>
 <path fill="none" stroke="rgb(179,179,179)" stroke-linejoin="round" d="M 23232,11200 L 23232,11050"/>
 <path fill="none" stroke="rgb(179,179,179)" stroke-linejoin="round" d="M 1104,11050 L 23232,11050"/>
 <path fill="none" stroke="rgb(179,179,179)" stroke-linejoin="round" d="M 954,11050 L 1104,11050"/>
 <path fill="none" stroke="rgb(179,179,179)" stroke-linejoin="round" d="M 954,11050 L 1104,11050"/>
 <path fill="none" stroke="rgb(179,179,179)" stroke-linejoin="round" d="M 954,10342 L 1104,10342"/>
 <path fill="none" stroke="rgb(179,179,179)" stroke-linejoin="round" d="M 954,10342 L 1104,10342"/>
 <path fill="none" stroke="rgb(179,179,179)" stroke-linejoin="round" d="M 954,9635 L 1104,9635"/>
 <path fill="none" stroke="rgb(179,179,179)" stroke-linejoin="round" d="M 954,9635 L 1104,9635"/>
 <path fill="none" stroke="rgb(179,179,179)" stroke-linejoin="round" d="M 954,8927 L 1104,8927"/>
 <path fill="none" stroke="rgb(179,179,179)" stroke-linejoin="round" d="M 954,8927 L 1104,8927"/>
 <path fill="none" stroke="rgb(179,179,179)" stroke-linejoin="round" d="M 954,8220 L 1104,8220"/>
 <path fill="none" stroke="rgb(179,179,179)" stroke-linejoin="round" d="M 954,8220 L 1104,8220"/>
 <path fill="none" stroke="rgb(179,179,179)" stroke-linejoin="round" d="M 954,7513 L 1104,7513"/>
 <path fill="none" stroke="rgb(179,179,179)" stroke-linejoin="round" d="M 954,7513 L 1104,7513"/>
 <path fill="none" stroke="rgb(179,179,179)" stroke-linejoin="round" d="M 954,6805 L 1104,6805"/>
 <path fill="none" stroke="rgb(179,179,179)" stroke-linejoin="round" d="M 954,6805 L 1104,6805"/>
 <path fill="none" stroke="rgb(179,179,179)" stroke-linejoin="round" d="M 954,6099 L 1104,6099"/>
 <path fill="none" stroke="rgb(179,179,179)" stroke-linejoin="round" d="M 954,6099 L 1104,6099"/>
 <path fill="none" stroke="rgb(179,179,179)" stroke-linejoin="round" d="M 954,5391 L 1104,5391"/>
 <path fill="none" stroke="rgb(179,179,179)" stroke-linejoin="round" d="M 954,5391 L 1104,5391"/>
 <path fill="none" stroke="rgb(179,179,179)" stroke-linejoin="round" d="M 954,4684 L 1104,4684"/>
 <path fill="none" stroke="rgb(179,179,179)" stroke-linejoin="round" d="M 954,4684 L 1104,4684"/>
 <path fill="none" stroke="rgb(179,179,179)" stroke-linejoin="round" d="M 954,3977 L 1104,3977"/>
 <path fill="none" stroke="rgb(179,179,179)" stroke-linejoin="round" d="M 954,3977 L 1104,3977"/>
 <path fill="none" stroke="rgb(179,179,179)" stroke-linejoin="round" d="M 954,3269 L 1104,3269"/>
 <path fill="none" stroke="rgb(179,179,179)" stroke-linejoin="round" d="M 954,3269 L 1104,3269"/>
 <path fill="none" stroke="rgb(179,179,179)" stroke-linejoin="round" d="M 954,2562 L 1104,2562"/>
 <path fill="none" stroke="rgb(179,179,179)" stroke-linejoin="round" d="M 954,2562 L 1104,2562"/>
 <path fill="none" stroke="rgb(179,179,179)" stroke-linejoin="round" d="M 954,1854 L 1104,1854"/>
 <path fill="none" stroke="rgb(179,179,179)" stroke-linejoin="round" d="M 954,1854 L 1104,1854"/>
 <path fill="none" stroke="rgb(179,179,179)" stroke-linejoin="round" d="M 954,1147 L 1104,1147"/>
 <path fill="none" stroke="rgb(179,179,179)" stroke-linejoin="round" d="M 954,1147 L 1104,1147"/>
 <path fill="none" stroke="rgb(179,179,179)" stroke-linejoin="round" d="M 954,440 L 1104,440"/>
 <path fill="none" stroke="rgb(179,179,179)" stroke-linejoin="round" d="M 954,440 L 1104,440"/>
 <path fill="none" stroke="rgb(179,179,179)" stroke-linejoin="round" d="M 1104,11050 L 1104,440"/>
 <path fill="none" stroke="rgb(129,199,132)" stroke-width="80" stroke-linejoin="round" d="M 1104,11050 L 4792,10342 8480,10342 12167,11050 15855,11050 17699,11050 19543,11050 21387,10342 23232,11050"/>
 <path fill="none" stroke="rgb(56,142,60)" stroke-width="80" stroke-linejoin="round" d="M 1104,11050 L 4792,9635 8480,8220 12167,6805 15855,6099 17699,6099 19543,6099 21387,6099 23232,5391"/>
 <path fill="none" stroke="rgb(255,66,14)" stroke-width="80" stroke-linejoin="round" d="M 1104,11050 L 4792,11050 8480,9635 12167,9635 15855,8927 17699,8927 19543,8927 21387,8927 23232,8927"/>
 <g style="opacity: 0.498039215686275">
  <path fill="none" stroke="rgb(178,178,178)" stroke-width="80" stroke-linejoin="round" d="M 1104,440 L 4792,2562 8480,5391 12167,6099 15855,7513 17699,7513 19543,7513 21387,8220 23232,8220"/>
 </g>
 <text class="SVGTextShape"><tspan class="TextParagraph"><tspan class="TextPosition" x="674" y="11618"><tspan font-family="Liberation Sans, sans-serif" font-size="353px" font-weight="400" fill="rgb(0,0,0)" stroke="none" style="white-space: pre">04.03</tspan></tspan></tspan></text>
 <text class="SVGTextShape"><tspan class="TextParagraph"><tspan class="TextPosition" x="2518" y="11618"><tspan font-family="Liberation Sans, sans-serif" font-size="353px" font-weight="400" fill="rgb(0,0,0)" stroke="none" style="white-space: pre">05.03</tspan></tspan></tspan></text>
 <text class="SVGTextShape"><tspan class="TextParagraph"><tspan class="TextPosition" x="4362" y="11618"><tspan font-family="Liberation Sans, sans-serif" font-size="353px" font-weight="400" fill="rgb(0,0,0)" stroke="none" style="white-space: pre">06.03</tspan></tspan></tspan></text>
 <text class="SVGTextShape"><tspan class="TextParagraph"><tspan class="TextPosition" x="6206" y="11618"><tspan font-family="Liberation Sans, sans-serif" font-size="353px" font-weight="400" fill="rgb(0,0,0)" stroke="none" style="white-space: pre">07.03</tspan></tspan></tspan></text>
 <text class="SVGTextShape"><tspan class="TextParagraph"><tspan class="TextPosition" x="8050" y="11618"><tspan font-family="Liberation Sans, sans-serif" font-size="353px" font-weight="400" fill="rgb(0,0,0)" stroke="none" style="white-space: pre">08.03</tspan></tspan></tspan></text>
 <text class="SVGTextShape"><tspan class="TextParagraph"><tspan class="TextPosition" x="9894" y="11618"><tspan font-family="Liberation Sans, sans-serif" font-size="353px" font-weight="400" fill="rgb(0,0,0)" stroke="none" style="white-space: pre">09.03</tspan></tspan></tspan></text>
 <text class="SVGTextShape"><tspan class="TextParagraph"><tspan class="TextPosition" x="11738" y="11618"><tspan font-family="Liberation Sans, sans-serif" font-size="353px" font-weight="400" fill="rgb(0,0,0)" stroke="none" style="white-space: pre">10.03</tspan></tspan></tspan></text>
 <text class="SVGTextShape"><tspan class="TextParagraph"><tspan class="TextPosition" x="13581" y="11618"><tspan font-family="Liberation Sans, sans-serif" font-size="353px" font-weight="400" fill="rgb(0,0,0)" stroke="none" style="white-space: pre">11.03</tspan></tspan></tspan></text>
 <text class="SVGTextShape"><tspan class="TextParagraph"><tspan class="TextPosition" x="15425" y="11618"><tspan font-family="Liberation Sans, sans-serif" font-size="353px" font-weight="400" fill="rgb(0,0,0)" stroke="none" style="white-space: pre">12.03</tspan></tspan></tspan></text>
 <text class="SVGTextShape"><tspan class="TextParagraph"><tspan class="TextPosition" x="17269" y="11618"><tspan font-family="Liberation Sans, sans-serif" font-size="353px" font-weight="400" fill="rgb(0,0,0)" stroke="none" style="white-space: pre">13.03</tspan></tspan></tspan></text>
 <text class="SVGTextShape"><tspan class="TextParagraph"><tspan class="TextPosition" x="19113" y="11618"><tspan font-family="Liberation Sans, sans-serif" font-size="353px" font-weight="400" fill="rgb(0,0,0)" stroke="none" style="white-space: pre">14.03</tspan></tspan></tspan></text>
 <text class="SVGTextShape"><tspan class="TextParagraph"><tspan class="TextPosition" x="20957" y="11618"><tspan font-family="Liberation Sans, sans-serif" font-size="353px" font-weight="400" fill="rgb(0,0,0)" stroke="none" style="white-space: pre">15.03</tspan></tspan></tspan></text>
 <text class="SVGTextShape"><tspan class="TextParagraph"><tspan class="TextPosition" x="22802" y="11618"><tspan font-family="Liberation Sans, sans-serif" font-size="353px" font-weight="400" fill="rgb(0,0,0)" stroke="none" style="white-space: pre">16.03</tspan></tspan></tspan></text>
 <text class="SVGTextShape"><tspan class="TextParagraph"><tspan class="TextPosition" x="663" y="11171"><tspan font-family="Liberation Sans, sans-serif" font-size="353px" font-weight="400" fill="rgb(0,0,0)" stroke="none" style="white-space: pre">0</tspan></tspan></tspan></text>
 <text class="SVGTextShape"><tspan class="TextParagraph"><tspan class="TextPosition" x="663" y="10463"><tspan font-family="Liberation Sans, sans-serif" font-size="353px" font-weight="400" fill="rgb(0,0,0)" stroke="none" style="white-space: pre">1</tspan></tspan></tspan></text>
 <text class="SVGTextShape"><tspan class="TextParagraph"><tspan class="TextPosition" x="663" y="9756"><tspan font-family="Liberation Sans, sans-serif" font-size="353px" font-weight="400" fill="rgb(0,0,0)" stroke="none" style="white-space: pre">2</tspan></tspan></tspan></text>
 <text class="SVGTextShape"><tspan class="TextParagraph"><tspan class="TextPosition" x="663" y="9048"><tspan font-family="Liberation Sans, sans-serif" font-size="353px" font-weight="400" fill="rgb(0,0,0)" stroke="none" style="white-space: pre">3</tspan></tspan></tspan></text>
 <text class="SVGTextShape"><tspan class="TextParagraph"><tspan class="TextPosition" x="663" y="8341"><tspan font-family="Liberation Sans, sans-serif" font-size="353px" font-weight="400" fill="rgb(0,0,0)" stroke="none" style="white-space: pre">4</tspan></tspan></tspan></text>
 <text class="SVGTextShape"><tspan class="TextParagraph"><tspan class="TextPosition" x="663" y="7634"><tspan font-family="Liberation Sans, sans-serif" font-size="353px" font-weight="400" fill="rgb(0,0,0)" stroke="none" style="white-space: pre">5</tspan></tspan></tspan></text>
 <text class="SVGTextShape"><tspan class="TextParagraph"><tspan class="TextPosition" x="663" y="6926"><tspan font-family="Liberation Sans, sans-serif" font-size="353px" font-weight="400" fill="rgb(0,0,0)" stroke="none" style="white-space: pre">6</tspan></tspan></tspan></text>
 <text class="SVGTextShape"><tspan class="TextParagraph"><tspan class="TextPosition" x="663" y="6220"><tspan font-family="Liberation Sans, sans-serif" font-size="353px" font-weight="400" fill="rgb(0,0,0)" stroke="none" style="white-space: pre">7</tspan></tspan></tspan></text>
 <text class="SVGTextShape"><tspan class="TextParagraph"><tspan class="TextPosition" x="663" y="5512"><tspan font-family="Liberation Sans, sans-serif" font-size="353px" font-weight="400" fill="rgb(0,0,0)" stroke="none" style="white-space: pre">8</tspan></tspan></tspan></text>
 <text class="SVGTextShape"><tspan class="TextParagraph"><tspan class="TextPosition" x="663" y="4805"><tspan font-family="Liberation Sans, sans-serif" font-size="353px" font-weight="400" fill="rgb(0,0,0)" stroke="none" style="white-space: pre">9</tspan></tspan></tspan></text>
 <text class="SVGTextShape"><tspan class="TextParagraph"><tspan class="TextPosition" x="471" y="4098"><tspan font-family="Liberation Sans, sans-serif" font-size="353px" font-weight="400" fill="rgb(0,0,0)" stroke="none" style="white-space: pre">10</tspan></tspan></tspan></text>
 <text class="SVGTextShape"><tspan class="TextParagraph"><tspan class="TextPosition" x="471" y="3390"><tspan font-family="Liberation Sans, sans-serif" font-size="353px" font-weight="400" fill="rgb(0,0,0)" stroke="none" style="white-space: pre">11</tspan></tspan></tspan></text>
 <text class="SVGTextShape"><tspan class="TextParagraph"><tspan class="TextPosition" x="471" y="2683"><tspan font-family="Liberation Sans, sans-serif" font-size="353px" font-weight="400" fill="rgb(0,0,0)" stroke="none" style="white-space: pre">12</tspan></tspan></tspan></text>
 <text class="SVGTextShape"><tspan class="TextParagraph"><tspan class="TextPosition" x="471" y="1975"><tspan font-family="Liberation Sans, sans-serif" font-size="353px" font-weight="400" fill="rgb(0,0,0)" stroke="none" style="white-space: pre">13</tspan></tspan></tspan></text>
 <text class="SVGTextShape"><tspan class="TextParagraph"><tspan class="TextPosition" x="471" y="1268"><tspan font-family="Liberation Sans, sans-serif" font-size="353px" font-weight="400" fill="rgb(0,0,0)" stroke="none" style="white-space: pre">14</tspan></tspan></tspan></text>
 <text class="SVGTextShape"><tspan class="TextParagraph"><tspan class="TextPosition" x="471" y="561"><tspan font-family="Liberation Sans, sans-serif" font-size="353px" font-weight="400" fill="rgb(0,0,0)" stroke="none" style="white-space: pre">15</tspan></tspan></tspan></text>
 <path fill="none" stroke="rgb(129,199,132)" stroke-width="80" stroke-linejoin="round" d="M 1559,11958 L 2359,11958"/>
 <path fill="none" stroke="rgb(56,142,60)" stroke-width="80" stroke-linejoin="round" d="M 7858,11958 L 8658,11958"/>
 <path fill="none" stroke="rgb(255,66,14)" stroke-width="80" stroke-linejoin="round" d="M 14213,11958 L 15013,11958"/>
 <g style="opacity: 0.498039215686275">
  <path fill="none" stroke="rgb(178,178,178)" stroke-width="80" stroke-linejoin="round" d="M 19155,11958 L 19955,11958"/>
 </g>
 <text class="SVGTextShape"><tspan class="TextParagraph"><tspan class="TextPosition" x="2459" y="12078"><tspan font-family="Liberation Sans, sans-serif" font-size="353px" font-weight="400" fill="rgb(0,0,0)" stroke="none" style="white-space: pre">Antworten Ja (mündlich)</tspan></tspan></tspan></text>
 <text class="SVGTextShape"><tspan class="TextParagraph"><tspan class="TextPosition" x="8758" y="12078"><tspan font-family="Liberation Sans, sans-serif" font-size="353px" font-weight="400" fill="rgb(0,0,0)" stroke="none" style="white-space: pre">Antworten Ja (schriftlich)</tspan></tspan></tspan></text>
 <text class="SVGTextShape"><tspan class="TextParagraph"><tspan class="TextPosition" x="15113" y="12078"><tspan font-family="Liberation Sans, sans-serif" font-size="353px" font-weight="400" fill="rgb(0,0,0)" stroke="none" style="white-space: pre">Antworten Nein</tspan></tspan></tspan></text>
 <text class="SVGTextShape"><tspan class="TextParagraph"><tspan class="TextPosition" x="20055" y="12078"><tspan font-family="Liberation Sans, sans-serif" font-size="353px" font-weight="400" fill="rgb(0,0,0)" stroke="none" style="white-space: pre">Keine Antwort</tspan></tspan></tspan></text>
</svg>